<mxfile host="app.diagrams.net" agent="Mozilla/5.0 (X11; Linux x86_64; rv:135.0) Gecko/20100101 Firefox/135.0" version="26.0.11">
  <diagram name="Page-1" id="c37626ed-c26b-45fb-9056-f9ebc6bb27b6">
    <mxGraphModel dx="1434" dy="759" grid="1" gridSize="10" guides="1" tooltips="1" connect="1" arrows="1" fold="1" page="1" pageScale="1" pageWidth="1100" pageHeight="850" background="none" math="0" shadow="0">
      <root>
        <mxCell id="0" />
        <mxCell id="1" parent="0" />
        <mxCell id="pjnQEubE4bMpfgBRHc-I-14" value="" style="rounded=0;whiteSpace=wrap;html=1;fillColor=#f5f5f5;strokeColor=#666666;fontColor=#333333;strokeWidth=3;" parent="1" vertex="1">
          <mxGeometry x="410" y="70" width="680" height="550" as="geometry" />
        </mxCell>
        <mxCell id="pjnQEubE4bMpfgBRHc-I-1" value="&lt;div&gt;&lt;b&gt;&lt;font style=&quot;font-size: 16px;&quot;&gt;ISP 1&lt;/font&gt;&lt;/b&gt;&lt;/div&gt;&lt;div&gt;&lt;b&gt;&lt;font style=&quot;font-size: 16px;&quot;&gt;(FIBER)&lt;/font&gt;&lt;/b&gt;&lt;/div&gt;" style="ellipse;shape=cloud;whiteSpace=wrap;html=1;strokeWidth=3;" parent="1" vertex="1">
          <mxGeometry x="430" y="120" width="130" height="95" as="geometry" />
        </mxCell>
        <mxCell id="pjnQEubE4bMpfgBRHc-I-2" value="&lt;div&gt;&lt;b&gt;&lt;font style=&quot;font-size: 16px;&quot;&gt;ISP 2&lt;/font&gt;&lt;/b&gt;&lt;/div&gt;&lt;div&gt;&lt;b&gt;&lt;font style=&quot;font-size: 16px;&quot;&gt;(Serial)&lt;/font&gt;&lt;/b&gt;&lt;/div&gt;" style="ellipse;shape=cloud;whiteSpace=wrap;html=1;strokeWidth=3;" parent="1" vertex="1">
          <mxGeometry x="619.4" y="120" width="130" height="95" as="geometry" />
        </mxCell>
        <mxCell id="pjnQEubE4bMpfgBRHc-I-4" value="" style="endArrow=none;html=1;rounded=0;strokeWidth=3;entryX=0.55;entryY=0.95;entryDx=0;entryDy=0;entryPerimeter=0;" parent="1" source="pjnQEubE4bMpfgBRHc-I-55" target="pjnQEubE4bMpfgBRHc-I-2" edge="1">
          <mxGeometry width="50" height="50" relative="1" as="geometry">
            <mxPoint x="638.6399999999999" y="325.29999999999995" as="sourcePoint" />
            <mxPoint x="569" y="328" as="targetPoint" />
          </mxGeometry>
        </mxCell>
        <mxCell id="pjnQEubE4bMpfgBRHc-I-5" value="" style="endArrow=none;html=1;rounded=0;strokeWidth=3;entryX=0.55;entryY=0.95;entryDx=0;entryDy=0;entryPerimeter=0;" parent="1" source="pjnQEubE4bMpfgBRHc-I-61" target="pjnQEubE4bMpfgBRHc-I-1" edge="1">
          <mxGeometry width="50" height="50" relative="1" as="geometry">
            <mxPoint x="570" y="320" as="sourcePoint" />
            <mxPoint x="579" y="338" as="targetPoint" />
          </mxGeometry>
        </mxCell>
        <mxCell id="pjnQEubE4bMpfgBRHc-I-22" value="&lt;b&gt;Palo Alto&lt;/b&gt;" style="sketch=0;points=[[0.015,0.015,0],[0.985,0.015,0],[0.985,0.985,0],[0.015,0.985,0],[0.25,0,0],[0.5,0,0],[0.75,0,0],[1,0.25,0],[1,0.5,0],[1,0.75,0],[0.75,1,0],[0.5,1,0],[0.25,1,0],[0,0.75,0],[0,0.5,0],[0,0.25,0]];verticalLabelPosition=bottom;html=1;verticalAlign=top;aspect=fixed;align=center;pointerEvents=1;shape=mxgraph.cisco19.rect;prIcon=firewall;fillColor=#FAFAFA;strokeColor=#005073;fontSize=16;" parent="1" vertex="1">
          <mxGeometry x="581.2" y="400" width="51.2" height="40" as="geometry" />
        </mxCell>
        <mxCell id="pjnQEubE4bMpfgBRHc-I-24" value="" style="endArrow=none;html=1;rounded=0;strokeWidth=3;exitX=0.5;exitY=0;exitDx=0;exitDy=0;exitPerimeter=0;entryX=0.5;entryY=1;entryDx=0;entryDy=0;entryPerimeter=0;" parent="1" source="pjnQEubE4bMpfgBRHc-I-19" target="pjnQEubE4bMpfgBRHc-I-22" edge="1">
          <mxGeometry width="50" height="50" relative="1" as="geometry">
            <mxPoint x="644" y="216" as="sourcePoint" />
            <mxPoint x="514" y="291" as="targetPoint" />
          </mxGeometry>
        </mxCell>
        <mxCell id="pjnQEubE4bMpfgBRHc-I-19" value="&lt;font style=&quot;font-size: 16px;&quot;&gt;&lt;b&gt;c3640 Router&lt;/b&gt;&lt;/font&gt;" style="sketch=0;points=[[0.5,0,0],[1,0.5,0],[0.5,1,0],[0,0.5,0],[0.145,0.145,0],[0.8555,0.145,0],[0.855,0.8555,0],[0.145,0.855,0]];verticalLabelPosition=bottom;html=1;verticalAlign=top;aspect=fixed;align=center;pointerEvents=1;shape=mxgraph.cisco19.rect;prIcon=router;labelBackgroundColor=light-dark(#f5f5f5, #272727);fillColor=#FFFFFF;strokeColor=light-dark(#005073, #436697);" parent="1" vertex="1">
          <mxGeometry x="581.2" y="530" width="50" height="50" as="geometry" />
        </mxCell>
        <mxCell id="pjnQEubE4bMpfgBRHc-I-55" value="&lt;span style=&quot;color: rgb(0, 0, 0);&quot;&gt;&lt;font style=&quot;font-size: 16px;&quot;&gt;&lt;b&gt;Modem&lt;/b&gt;&lt;/font&gt;&lt;/span&gt;" style="fontColor=#0066CC;verticalAlign=middle;verticalLabelPosition=middle;labelPosition=center;align=center;html=1;outlineConnect=0;fillColor=#FFFFFF;strokeColor=light-dark(#005073, #7d9cc6);gradientColor=none;gradientDirection=north;strokeWidth=2;shape=mxgraph.networks.modem;" parent="1" vertex="1">
          <mxGeometry x="619.4" y="280" width="90" height="30" as="geometry" />
        </mxCell>
        <mxCell id="pjnQEubE4bMpfgBRHc-I-56" value="" style="rounded=1;whiteSpace=wrap;html=1;dashed=1;fillColor=#f5f5f5;fontColor=#333333;strokeColor=#000000;fontSize=12;strokeWidth=3;" parent="1" vertex="1">
          <mxGeometry x="740" y="295" width="330" height="260" as="geometry" />
        </mxCell>
        <mxCell id="pjnQEubE4bMpfgBRHc-I-57" value="&lt;div&gt;&lt;font style=&quot;font-size: 16px;&quot;&gt;&lt;b&gt;Sales/Distribution&lt;/b&gt;&lt;/font&gt;&lt;/div&gt;" style="points=[[0.03,0.03,0],[0.5,0,0],[0.97,0.03,0],[1,0.4,0],[0.97,0.745,0],[0.5,1,0],[0.03,0.745,0],[0,0.4,0]];verticalLabelPosition=bottom;sketch=0;html=1;verticalAlign=top;aspect=fixed;align=center;pointerEvents=1;shape=mxgraph.cisco19.workstation;fillColor=light-dark(#005073, #7d9cc6);strokeColor=light-dark(#FFFFFF,#436697);" parent="1" vertex="1">
          <mxGeometry x="800" y="330" width="50" height="40" as="geometry" />
        </mxCell>
        <mxCell id="pjnQEubE4bMpfgBRHc-I-58" value="&lt;font style=&quot;font-size: 16px;&quot;&gt;&lt;b&gt;IT&lt;/b&gt;&lt;/font&gt;" style="points=[[0.03,0.03,0],[0.5,0,0],[0.97,0.03,0],[1,0.4,0],[0.97,0.745,0],[0.5,1,0],[0.03,0.745,0],[0,0.4,0]];verticalLabelPosition=bottom;sketch=0;html=1;verticalAlign=top;aspect=fixed;align=center;pointerEvents=1;shape=mxgraph.cisco19.workstation;fillColor=light-dark(#005073, #7d9cc6);strokeColor=light-dark(#FFFFFF,#436697);" parent="1" vertex="1">
          <mxGeometry x="800" y="435" width="50" height="40" as="geometry" />
        </mxCell>
        <mxCell id="pjnQEubE4bMpfgBRHc-I-59" value="&lt;div&gt;&lt;font style=&quot;font-size: 16px;&quot;&gt;&lt;b&gt;Management&lt;/b&gt;&lt;/font&gt;&lt;/div&gt;" style="points=[[0.03,0.03,0],[0.5,0,0],[0.97,0.03,0],[1,0.4,0],[0.97,0.745,0],[0.5,1,0],[0.03,0.745,0],[0,0.4,0]];verticalLabelPosition=bottom;sketch=0;html=1;verticalAlign=top;aspect=fixed;align=center;pointerEvents=1;shape=mxgraph.cisco19.workstation;fillColor=light-dark(#005073, #7d9cc6);strokeColor=light-dark(#FFFFFF,#436697);" parent="1" vertex="1">
          <mxGeometry x="958.75" y="440" width="50" height="40" as="geometry" />
        </mxCell>
        <mxCell id="pjnQEubE4bMpfgBRHc-I-60" value="&lt;font style=&quot;font-size: 16px;&quot;&gt;&lt;b&gt;Internal &lt;/b&gt;&lt;/font&gt;&lt;font style=&quot;font-size: 16px;&quot;&gt;&lt;b&gt;&lt;font&gt;Server&lt;/font&gt;s&lt;/b&gt;&lt;/font&gt;" style="sketch=0;points=[[0.015,0.015,0],[0.985,0.015,0],[0.985,0.985,0],[0.015,0.985,0],[0.25,0,0],[0.5,0,0],[0.75,0,0],[1,0.25,0],[1,0.5,0],[1,0.75,0],[0.75,1,0],[0.5,1,0],[0.25,1,0],[0,0.75,0],[0,0.5,0],[0,0.25,0]];verticalLabelPosition=bottom;html=1;verticalAlign=top;aspect=fixed;align=center;pointerEvents=1;shape=mxgraph.cisco19.server;fillColor=light-dark(#005073, #7d9cc6);strokeColor=light-dark(#FFFFFF,#436697);" parent="1" vertex="1">
          <mxGeometry x="970" y="325" width="27.500000000000004" height="50" as="geometry" />
        </mxCell>
        <mxCell id="pjnQEubE4bMpfgBRHc-I-61" value="&lt;span style=&quot;color: rgb(0, 0, 0);&quot;&gt;&lt;b&gt;&lt;font style=&quot;font-size: 16px;&quot;&gt;ONT&lt;/font&gt;&lt;/b&gt;&lt;/span&gt;" style="fontColor=#0066CC;verticalAlign=middle;verticalLabelPosition=middle;labelPosition=center;align=center;html=1;outlineConnect=0;fillColor=#FFFFFF;strokeColor=light-dark(#005073, #7d9cc6);gradientColor=none;gradientDirection=north;strokeWidth=2;shape=mxgraph.networks.modem;" parent="1" vertex="1">
          <mxGeometry x="491.20000000000005" y="280" width="90" height="30" as="geometry" />
        </mxCell>
        <mxCell id="pjnQEubE4bMpfgBRHc-I-62" value="" style="endArrow=none;html=1;rounded=0;strokeWidth=3;entryX=0.985;entryY=0.015;entryDx=0;entryDy=0;entryPerimeter=0;" parent="1" source="pjnQEubE4bMpfgBRHc-I-55" target="pjnQEubE4bMpfgBRHc-I-22" edge="1">
          <mxGeometry width="50" height="50" relative="1" as="geometry">
            <mxPoint x="702" y="342" as="sourcePoint" />
            <mxPoint x="682" y="220" as="targetPoint" />
          </mxGeometry>
        </mxCell>
        <mxCell id="pjnQEubE4bMpfgBRHc-I-63" value="" style="endArrow=none;html=1;rounded=0;strokeWidth=3;entryX=0.015;entryY=0.015;entryDx=0;entryDy=0;entryPerimeter=0;" parent="1" source="pjnQEubE4bMpfgBRHc-I-61" target="pjnQEubE4bMpfgBRHc-I-22" edge="1">
          <mxGeometry width="50" height="50" relative="1" as="geometry">
            <mxPoint x="702" y="372" as="sourcePoint" />
            <mxPoint x="687" y="445" as="targetPoint" />
          </mxGeometry>
        </mxCell>
        <mxCell id="pjnQEubE4bMpfgBRHc-I-64" value="&lt;font style=&quot;font-size: 20px;&quot;&gt;&lt;b&gt;Chanterelle Branch Logical Layout&lt;/b&gt;&lt;/font&gt;" style="text;html=1;align=center;verticalAlign=middle;whiteSpace=wrap;rounded=0;" parent="1" vertex="1">
          <mxGeometry x="502.5" y="90" width="365" height="30" as="geometry" />
        </mxCell>
        <mxCell id="pjnQEubE4bMpfgBRHc-I-16" value="&lt;font style=&quot;font-size: 16px;&quot;&gt;&lt;b&gt;15.1a i686 Switch&lt;/b&gt;&lt;/font&gt;" style="sketch=0;points=[[0.015,0.015,0],[0.985,0.015,0],[0.985,0.985,0],[0.015,0.985,0],[0.25,0,0],[0.5,0,0],[0.75,0,0],[1,0.25,0],[1,0.5,0],[1,0.75,0],[0.75,1,0],[0.5,1,0],[0.25,1,0],[0,0.75,0],[0,0.5,0],[0,0.25,0]];verticalLabelPosition=bottom;html=1;verticalAlign=top;aspect=fixed;align=center;pointerEvents=1;shape=mxgraph.cisco19.rect;prIcon=l2_switch;labelBackgroundColor=light-dark(#f5f5f5, #141414);fillColor=#FFFFFF;strokeColor=light-dark(#005073, #436697);" parent="1" vertex="1">
          <mxGeometry x="800" y="530" width="50" height="50" as="geometry" />
        </mxCell>
        <mxCell id="pjnQEubE4bMpfgBRHc-I-17" value="&lt;font style=&quot;font-size: 16px;&quot;&gt;&lt;b&gt;15.1a i686 Switch&lt;/b&gt;&lt;/font&gt;" style="sketch=0;points=[[0.015,0.015,0],[0.985,0.015,0],[0.985,0.985,0],[0.015,0.985,0],[0.25,0,0],[0.5,0,0],[0.75,0,0],[1,0.25,0],[1,0.5,0],[1,0.75,0],[0.75,1,0],[0.5,1,0],[0.25,1,0],[0,0.75,0],[0,0.5,0],[0,0.25,0]];verticalLabelPosition=bottom;html=1;verticalAlign=top;aspect=fixed;align=center;pointerEvents=1;shape=mxgraph.cisco19.rect;prIcon=l2_switch;fillColor=#FFFFFF;strokeColor=light-dark(#005073, #436697);" parent="1" vertex="1">
          <mxGeometry x="958.75" y="530" width="50" height="50" as="geometry" />
        </mxCell>
        <mxCell id="bU7S4ERMX5JgMJu_IhuA-19" value="" style="endArrow=none;html=1;rounded=0;strokeWidth=3;exitX=0;exitY=0.5;exitDx=0;exitDy=0;exitPerimeter=0;entryX=1;entryY=0.5;entryDx=0;entryDy=0;entryPerimeter=0;" parent="1" source="pjnQEubE4bMpfgBRHc-I-17" target="pjnQEubE4bMpfgBRHc-I-16" edge="1">
          <mxGeometry width="50" height="50" relative="1" as="geometry">
            <mxPoint x="659" y="590" as="sourcePoint" />
            <mxPoint x="659" y="513" as="targetPoint" />
          </mxGeometry>
        </mxCell>
        <mxCell id="pjnQEubE4bMpfgBRHc-I-43" value="" style="endArrow=none;html=1;rounded=0;strokeWidth=3;exitX=0;exitY=0.5;exitDx=0;exitDy=0;exitPerimeter=0;entryX=1;entryY=0.5;entryDx=0;entryDy=0;entryPerimeter=0;" parent="1" source="pjnQEubE4bMpfgBRHc-I-16" target="pjnQEubE4bMpfgBRHc-I-19" edge="1">
          <mxGeometry width="50" height="50" relative="1" as="geometry">
            <mxPoint x="675" y="670" as="sourcePoint" />
            <mxPoint x="690" y="660" as="targetPoint" />
          </mxGeometry>
        </mxCell>
      </root>
    </mxGraphModel>
  </diagram>
</mxfile>
